# xmcd CD database file
# Copyright (C) 1993-1998 Ti Kan
#
# Track frame offsets:
#	150
#	13400
#	30250
#	49000
#	87100
#	100000
#	116862
#	129472
#	144585
#	161050
#	175275
#	191422
#	204000
#	220920
#	237297
#	251117
#	263540
#	273990
#	298137
#
# Disc length: 4189 seconds
#
# Revision: 1
# Processed by: cddbd v1.5.2PL0 Copyright (c) Steve Scherf et al.
# Submitted via: NotifyCDPlayer(CDDB) 1.51.3
#
DISCID=0f105b13
DTITLE=Johnny Cash - I Love Country
DYEAR=1988
DGENRE=Country
TTITLE0=I Walked The Line
TTITLE1=The City Of New Orleans
TTITLE2=The Ballad Of New Orleans
TTITLE3=The Legend Of John Henry's Hammer
TTITLE4=San Quentin
TTITLE5=(Ghost) Riders In The Sky
TTITLE6=The Last Gunfighter Ballad
TTITLE7=Casey's Last Ride
TTITLE8=The Gambler
TTITLE9=The Ballad Of Forty Dollars
TTITLE10=The Twentieth Century Is Almost Over
TTITLE11=Folks Out On The Road
TTITLE12=A Boy Named Sue
TTITLE13=The Baron
TTITLE14=Don't Take Your Guns To Town
TTITLE15=The Lady Came From Baltimore
TTITLE16=I'm Leaving Now
TTITLE17=Highway Patrolman
TTITLE18=Johnny 99
EXTD=CBS 461129-2
EXTT0=
EXTT1=
EXTT2=
EXTT3=
EXTT4=
EXTT5=
EXTT6=
EXTT7=
EXTT8=
EXTT9=
EXTT10=
EXTT11=
EXTT12=
EXTT13=
EXTT14=
EXTT15=
EXTT16=
EXTT17=
EXTT18=
PLAYORDER=
